<svg width="60" height="60" viewBox="0 0 60 60" fill="none" xmlns="http://www.w3.org/2000/svg">
<path opacity="0.4" fill-rule="evenodd" clip-rule="evenodd" d="M30 60C46.5685 60 60 46.5685 60 30C60 13.4315 46.5685 0 30 0C13.4315 0 0 13.4315 0 30C0 46.5685 13.4315 60 30 60Z" fill="#4BB44E"/>
<path fill-rule="evenodd" clip-rule="evenodd" d="M30 50C41.0457 50 50 41.0457 50 30C50 18.9543 41.0457 10 30 10C18.9543 10 10 18.9543 10 30C10 41.0457 18.9543 50 30 50Z" fill="#4BB44E"/>
<path fill-rule="evenodd" clip-rule="evenodd" d="M32.4984 26.6214C31.6956 25.2023 33.4387 23.716 34.7131 24.7329L39.3546 28.4367C40.358 29.2374 40.358 30.7626 39.3546 31.5633L34.7879 35.2074C33.4623 36.2651 31.6436 34.7341 32.4599 33.2476C33.0292 32.2107 32.2755 30.9436 31.0926 30.949L21.0097 30.9953C20.4528 30.9979 20 30.5472 20 29.9903C20 29.441 20.441 28.9934 20.9902 28.9853L31.2302 28.8334C32.3556 28.8167 33.0526 27.6011 32.4984 26.6214Z" fill="white"/>
</svg>
