<svg width="24" height="18" viewBox="0 0 24 18" fill="none" xmlns="http://www.w3.org/2000/svg">
<path d="M23.3897 0H19.6419C18.9266 0 18.2138 0.539299 18.0193 1.22779L17.0069 4.81088C16.8911 4.77865 16.7693 4.76001 16.6425 4.76001H8.11967C7.70816 2.9252 6.06723 1.54977 4.1101 1.54977C1.84376 1.54977 0 3.39361 0 5.65979C0 7.73356 1.54432 9.4527 3.54312 9.72984C3.54223 9.75662 3.54239 9.78364 3.54508 9.81107L3.75751 11.9644C3.8328 12.7273 4.49223 13.3249 5.25885 13.3249H14.6565C15.3749 13.3249 16.0845 12.7816 16.2721 12.0882L17.4473 7.7421L19.194 1.55978C19.2415 1.39204 19.4674 1.22095 19.6418 1.22095H23.3896C23.7267 1.22095 24 0.94772 24 0.610516C24 0.273312 23.7268 0 23.3897 0ZM1.22087 5.65979C1.22087 4.06672 2.51694 2.77064 4.1101 2.77064C5.70325 2.77064 6.99924 4.06672 6.99924 5.65979C6.99924 7.25286 5.70317 8.54893 4.1101 8.54893C2.51702 8.54893 1.22087 7.25294 1.22087 5.65979ZM15.0936 11.7694C15.0488 11.9351 14.8281 12.104 14.6565 12.104H5.25885C5.12488 12.104 4.9857 11.9779 4.97252 11.8445L4.76269 9.71739C6.6163 9.42031 8.05879 7.87957 8.20636 5.98088H16.6424C16.6483 5.98088 16.6535 5.98112 16.6581 5.98145C16.6572 5.986 16.6561 5.99113 16.6545 5.99675L15.0936 11.7694Z" fill="#4BB44E"/>
<path d="M7.04064 14.0201C5.9937 14.0201 5.14194 14.8719 5.14194 15.9188C5.14194 16.9658 5.9937 17.8175 7.04064 17.8175C8.08758 17.8175 8.93942 16.9658 8.93942 15.9188C8.93942 14.8719 8.08758 14.0201 7.04064 14.0201ZM7.04064 16.5967C6.66689 16.5967 6.36281 16.2926 6.36281 15.9188C6.36281 15.5451 6.66689 15.241 7.04064 15.241C7.41439 15.241 7.71855 15.5451 7.71855 15.9188C7.71855 16.2926 7.41439 16.5967 7.04064 16.5967Z" fill="#4BB44E"/>
<path d="M13.061 14.0201C12.0141 14.0201 11.1624 14.8719 11.1624 15.9188C11.1624 16.9658 12.0141 17.8175 13.061 17.8175C14.108 17.8175 14.9597 16.9658 14.9597 15.9188C14.9597 14.8719 14.108 14.0201 13.061 14.0201ZM13.061 16.5967C12.6873 16.5967 12.3832 16.2926 12.3832 15.9188C12.3832 15.5451 12.6873 15.241 13.061 15.241C13.4348 15.241 13.7389 15.5451 13.7389 15.9188C13.7389 16.2926 13.4348 16.5967 13.061 16.5967Z" fill="#4BB44E"/>
<path d="M4.72041 7.17171V6.2703H5.62207C5.95919 6.2703 6.2325 5.99707 6.2325 5.65986C6.2325 5.32266 5.95919 5.04943 5.62207 5.04943H4.72041V4.1477C4.72041 3.81049 4.4471 3.53726 4.10998 3.53726C3.77286 3.53726 3.49954 3.81049 3.49954 4.1477V5.04935H2.59814C2.26101 5.04935 1.9877 5.32258 1.9877 5.65978C1.9877 5.99699 2.26101 6.27022 2.59814 6.27022H3.49954V7.17162C3.49954 7.50883 3.77286 7.78206 4.10998 7.78206C4.4471 7.78206 4.72041 7.50883 4.72041 7.17171Z" fill="#B8D432"/>
</svg>
