<svg width="24" height="18" viewBox="0 0 24 18" fill="none" xmlns="http://www.w3.org/2000/svg">
<path d="M23.3896 0H19.6419C18.9266 0 18.2138 0.539298 18.0193 1.22779L17.0069 4.81087C16.8911 4.77864 16.7693 4.76 16.6425 4.76H8.11967C7.70816 2.9252 6.06723 1.54977 4.1101 1.54977C1.84376 1.54977 0 3.39361 0 5.65978C0 7.73355 1.54432 9.4527 3.54312 9.72984C3.54223 9.75661 3.54239 9.78364 3.54508 9.81107L3.75751 11.9644C3.8328 12.7273 4.49223 13.3249 5.25885 13.3249H14.6564C15.3749 13.3249 16.0845 12.7816 16.2721 12.0881L17.4473 7.7421L19.194 1.55978C19.2415 1.39203 19.4674 1.22095 19.6418 1.22095H23.3896C23.7267 1.22095 24 0.94772 24 0.610516C24 0.273312 23.7268 0 23.3896 0ZM1.22087 5.65978C1.22087 4.06671 2.51694 2.77064 4.1101 2.77064C5.70325 2.77064 6.99924 4.06671 6.99924 5.65978C6.99924 7.25286 5.70317 8.54893 4.1101 8.54893C2.51702 8.54893 1.22087 7.25294 1.22087 5.65978ZM15.0936 11.7694C15.0488 11.9351 14.8281 12.104 14.6564 12.104H5.25885C5.12488 12.104 4.9857 11.9779 4.97252 11.8445L4.76269 9.71738C6.61629 9.42031 8.05879 7.87957 8.20635 5.98087H16.6424C16.6483 5.98087 16.6535 5.98112 16.6581 5.98144C16.6572 5.986 16.6561 5.99113 16.6545 5.99674L15.0936 11.7694Z" fill="white"/>
<path d="M7.0403 14.0201C5.99336 14.0201 5.1416 14.8719 5.1416 15.9188C5.1416 16.9658 5.99336 17.8175 7.0403 17.8175C8.08723 17.8175 8.93907 16.9658 8.93907 15.9188C8.93907 14.8719 8.08723 14.0201 7.0403 14.0201ZM7.0403 16.5967C6.66655 16.5967 6.36247 16.2926 6.36247 15.9188C6.36247 15.5451 6.66655 15.241 7.0403 15.241C7.41404 15.241 7.7182 15.5451 7.7182 15.9188C7.7182 16.2926 7.41404 16.5967 7.0403 16.5967Z" fill="white"/>
<path d="M13.0608 14.0201C12.0139 14.0201 11.1621 14.8719 11.1621 15.9188C11.1621 16.9658 12.0139 17.8175 13.0608 17.8175C14.1077 17.8175 14.9595 16.9658 14.9595 15.9188C14.9595 14.8719 14.1077 14.0201 13.0608 14.0201ZM13.0608 16.5967C12.6871 16.5967 12.383 16.2926 12.383 15.9188C12.383 15.5451 12.6871 15.241 13.0608 15.241C13.4346 15.241 13.7386 15.5451 13.7386 15.9188C13.7386 16.2926 13.4346 16.5967 13.0608 16.5967Z" fill="white"/>
<path d="M4.72002 7.17167V6.27027H5.62167C5.95879 6.27027 6.2321 5.99704 6.2321 5.65983C6.2321 5.32263 5.95879 5.0494 5.62167 5.0494H4.72002V4.14767C4.72002 3.81046 4.4467 3.53723 4.10958 3.53723C3.77246 3.53723 3.49915 3.81046 3.49915 4.14767V5.04932H2.59774C2.26062 5.04932 1.9873 5.32255 1.9873 5.65975C1.9873 5.99695 2.26062 6.27018 2.59774 6.27018H3.49915V7.17159C3.49915 7.5088 3.77246 7.78203 4.10958 7.78203C4.4467 7.78203 4.72002 7.5088 4.72002 7.17167Z" fill="#4BB44E"/>
</svg>
