<svg width="20" height="20" viewBox="0 0 20 20" fill="none" xmlns="http://www.w3.org/2000/svg">
<path d="M19.9464 5.72141C19.9008 4.6874 19.7336 3.97653 19.494 3.36056C19.2469 2.70671 18.8668 2.12132 18.3687 1.63469C17.8821 1.14048 17.2928 0.756459 16.6465 0.513216C16.027 0.273686 15.3198 0.106475 14.2858 0.060885C13.2441 0.0114345 12.9134 0 10.2713 0C7.62917 0 7.29846 0.0114345 6.26059 0.057024C5.22659 0.102614 4.51572 0.269973 3.89989 0.509355C3.24589 0.756459 2.66051 1.13662 2.17387 1.63469C1.67966 2.12132 1.29579 2.71057 1.0524 3.35684C0.81287 3.97653 0.645659 4.68354 0.60007 5.71755C0.550619 6.75928 0.539185 7.08999 0.539185 9.7321C0.539185 12.3742 0.550619 12.7049 0.596209 13.7428C0.641798 14.7768 0.809158 15.4877 1.04869 16.1036C1.29579 16.7575 1.67966 17.3429 2.17387 17.8295C2.66051 18.3237 3.24976 18.7077 3.89603 18.951C4.51572 19.1905 5.22273 19.3577 6.25688 19.4033C7.2946 19.4491 7.62546 19.4603 10.2676 19.4603C12.9097 19.4603 13.2404 19.4491 14.2783 19.4033C15.3123 19.3577 16.0231 19.1905 16.639 18.951C17.9468 18.4453 18.9808 17.4113 19.4865 16.1036C19.7258 15.484 19.8932 14.7768 19.9388 13.7428C19.9844 12.7049 19.9958 12.3742 19.9958 9.7321C19.9958 7.08999 19.9919 6.75928 19.9464 5.72141ZM18.1939 13.6668C18.152 14.6172 17.9924 15.1304 17.8593 15.4725C17.5323 16.3203 16.8595 16.9932 16.0117 17.3202C15.6696 17.4532 15.1526 17.6129 14.2059 17.6546C13.1795 17.7003 12.8717 17.7116 10.2751 17.7116C7.67862 17.7116 7.36692 17.7003 6.3442 17.6546C5.3938 17.6129 4.88058 17.4532 4.53844 17.3202C4.11655 17.1642 3.73253 16.9171 3.42083 16.594C3.09769 16.2784 2.85059 15.8983 2.69466 15.4764C2.56161 15.1342 2.40197 14.6172 2.36024 13.6706C2.3145 12.6442 2.30322 12.3362 2.30322 9.73967C2.30322 7.14315 2.3145 6.83145 2.36024 5.80888C2.40197 4.85848 2.56161 4.34526 2.69466 4.00312C2.85059 3.58108 3.09769 3.19721 3.42469 2.88536C3.7401 2.56222 4.12026 2.31512 4.5423 2.15934C4.88444 2.02628 5.40152 1.86665 6.34806 1.82477C7.37449 1.77918 7.68248 1.76774 10.2789 1.76774C12.8792 1.76774 13.1871 1.77918 14.2098 1.82477C15.1602 1.86665 15.6734 2.02628 16.0156 2.15934C16.4374 2.31512 16.8215 2.56222 17.1332 2.88536C17.4563 3.20092 17.7034 3.58108 17.8593 4.00312C17.9924 4.34526 18.152 4.86219 18.1939 5.80888C18.2395 6.83531 18.2509 7.14315 18.2509 9.73967C18.2509 12.3362 18.2395 12.6403 18.1939 13.6668Z" fill="white"/>
<path d="M10.2714 4.73291C7.51157 4.73291 5.27234 6.97199 5.27234 9.73202C5.27234 12.492 7.51157 14.7311 10.2714 14.7311C13.0315 14.7311 15.2706 12.492 15.2706 9.73202C15.2706 6.97199 13.0315 4.73291 10.2714 4.73291ZM10.2714 12.9748C8.48098 12.9748 7.02865 11.5226 7.02865 9.73202C7.02865 7.9414 8.48098 6.48922 10.2714 6.48922C12.0621 6.48922 13.5142 7.9414 13.5142 9.73202C13.5142 11.5226 12.0621 12.9748 10.2714 12.9748Z" fill="white"/>
<path d="M16.6352 4.53523C16.6352 5.17972 16.1126 5.70229 15.468 5.70229C14.8235 5.70229 14.3009 5.17972 14.3009 4.53523C14.3009 3.89059 14.8235 3.36816 15.468 3.36816C16.1126 3.36816 16.6352 3.89059 16.6352 4.53523Z" fill="white"/>
</svg>
