<svg width="24" height="17" viewBox="0 0 24 17" fill="none" xmlns="http://www.w3.org/2000/svg">
<path fill-rule="evenodd" clip-rule="evenodd" d="M24.0001 2.59991V0.927184C24.0001 0.700668 23.9027 0.504647 23.7078 0.339116C23.513 0.173585 23.2822 0.0908203 23.0156 0.0908203H1.35727C1.09064 0.0908203 0.859911 0.173585 0.665067 0.339116C0.470223 0.504647 0.372803 0.700668 0.372803 0.927184V2.59991C0.372803 2.82643 0.470223 3.02245 0.665067 3.18798C0.859911 3.35351 1.09064 3.43628 1.35727 3.43628H23.0156C23.2822 3.43628 23.513 3.35351 23.7078 3.18798C23.9027 3.02245 24.0001 2.82643 24.0001 2.59991ZM24.0001 7.61799V9.29072C24.0001 9.51723 23.9027 9.71325 23.7078 9.87879C23.513 10.0443 23.2822 10.1271 23.0156 10.1271H1.35727C1.09064 10.1271 0.859911 10.0443 0.665067 9.87879C0.470223 9.71325 0.372803 9.51723 0.372803 9.29072V7.61799C0.372803 7.39147 0.470223 7.19545 0.665067 7.02992C0.859911 6.86439 1.09064 6.78163 1.35727 6.78163H23.0156C23.2822 6.78163 23.513 6.86439 23.7078 7.02992C23.9027 7.19545 24.0001 7.39147 24.0001 7.61799ZM24.0001 14.3091V15.9818C24.0001 16.2083 23.9027 16.4043 23.7078 16.5698C23.513 16.7354 23.2822 16.8181 23.0156 16.8181H1.35727C1.09064 16.8181 0.859911 16.7354 0.665067 16.5698C0.470223 16.4043 0.372803 16.2083 0.372803 15.9818V14.3091C0.372803 14.0825 0.470223 13.8865 0.665067 13.721C0.859911 13.5555 1.09064 13.4727 1.35727 13.4727H23.0156C23.2822 13.4727 23.513 13.5555 23.7078 13.721C23.9027 13.8865 24.0001 14.0825 24.0001 14.3091Z" fill="#08150A"/>
</svg>
