<svg width="18" height="20" viewBox="0 0 18 20" fill="none" xmlns="http://www.w3.org/2000/svg">
<path d="M17.088 4.87252C15.9757 4.87252 14.9494 4.50403 14.1253 3.88241C13.1801 3.1698 12.501 2.12449 12.2611 0.919688C12.2018 0.622007 12.1698 0.31481 12.1667 0H8.98931V8.68222L8.98551 13.4379C8.98551 14.7093 8.15756 15.7873 7.00985 16.1665C6.67677 16.2765 6.31704 16.3286 5.94247 16.3081C5.46435 16.2818 5.01631 16.1376 4.62689 15.9046C3.79818 15.409 3.23632 14.5098 3.22109 13.4813C3.19711 11.8737 4.4967 10.5631 6.10311 10.5631C6.4202 10.5631 6.72474 10.6149 7.00985 10.7089V8.33581V7.48274C6.70913 7.4382 6.40307 7.41498 6.09359 7.41498C4.3353 7.41498 2.69082 8.14586 1.51533 9.46258C0.626853 10.4576 0.0939214 11.7272 0.0116976 13.0583C-0.0960307 14.8071 0.543868 16.4695 1.78484 17.696C1.96718 17.8761 2.15865 18.0432 2.35888 18.1973C3.42284 19.0161 4.72358 19.46 6.09359 19.46C6.40307 19.46 6.70913 19.4372 7.00985 19.3926C8.28965 19.203 9.47048 18.6172 10.4023 17.696C11.5474 16.5643 12.1801 15.0618 12.1869 13.4626L12.1705 6.36092C12.7168 6.78232 13.3141 7.13101 13.9551 7.40166C14.9521 7.82229 16.0092 8.03547 17.0971 8.03509V5.72787V4.87176C17.0979 4.87252 17.0887 4.87252 17.088 4.87252Z" fill="white"/>
</svg>
