<svg width="20" height="16" viewBox="0 0 20 16" fill="none" xmlns="http://www.w3.org/2000/svg">
<path d="M19.7262 1.95644C19.0026 2.27383 18.2316 2.48421 17.4278 2.58635C18.2547 2.09264 18.8859 1.31681 19.1826 0.381674C18.4116 0.841337 17.5604 1.16602 16.6532 1.34721C15.9212 0.567728 14.8778 0.0849609 13.7396 0.0849609C11.5313 0.0849609 9.75342 1.8774 9.75342 4.07478C9.75342 4.39095 9.78017 4.69496 9.84584 4.98438C6.5297 4.82265 3.5954 3.23329 1.6242 0.812152C1.28006 1.40923 1.0782 2.09264 1.0782 2.82834C1.0782 4.20976 1.78958 5.43432 2.84997 6.14327C2.20911 6.13111 1.58042 5.94505 1.0478 5.65199C1.0478 5.66415 1.0478 5.67996 1.0478 5.69576C1.0478 7.63413 2.43043 9.24416 4.24355 9.61506C3.91886 9.70383 3.565 9.74639 3.19775 9.74639C2.94238 9.74639 2.68458 9.7318 2.44259 9.67829C2.95941 11.2579 4.42595 12.4192 6.16975 12.4569C4.81265 13.5185 3.08952 14.1582 1.22412 14.1582C0.897007 14.1582 0.583269 14.1436 0.269531 14.1035C2.03644 15.2429 4.13045 15.8935 6.38864 15.8935C13.7286 15.8935 17.7416 9.81327 17.7416 4.54296C17.7416 4.36663 17.7355 4.19639 17.727 4.02736C18.5186 3.46555 19.1838 2.76389 19.7262 1.95644Z" fill="white"/>
</svg>
