<svg width="24" height="16" viewBox="0 0 24 16" fill="none" xmlns="http://www.w3.org/2000/svg">
<path d="M22.6348 13.3362C22.3759 14.3035 21.617 15.0661 20.6547 15.3266C18.8966 15.8101 11.864 15.8101 11.864 15.8101C11.864 15.8101 4.83174 15.8101 3.07364 15.3449C2.12979 15.0847 1.35242 14.3034 1.09353 13.3362C0.630859 11.5693 0.630859 7.90506 0.630859 7.90506C0.630859 7.90506 0.630859 4.22234 1.09353 2.47395C1.3527 1.50672 2.11128 0.744154 3.07378 0.483673C4.85026 5.91278e-05 11.8643 5.91278e-05 11.8643 5.91278e-05C11.8643 5.91278e-05 18.8966 5.91278e-05 20.6547 0.465204C21.6172 0.725549 22.3759 1.48811 22.6351 2.45534C23.0976 4.22234 23.0976 7.88645 23.0976 7.88645C23.0976 7.88645 23.1161 11.5693 22.6348 13.3362ZM9.62502 4.5199V11.2902L15.4729 7.90506L9.62502 4.5199Z" fill="white"/>
</svg>
